Coordinates
version=1
nRows=14
nColumns=40
inDegrees=yes

Units are S.I. units (second, meters, Newtons, ...)
If the header above contains a line with 'inDegrees', this indicates whether rotational values are in degrees (yes) or radians (no).

endheader
time	pelvis_tilt	pelvis_list	pelvis_rotation	pelvis_tx	pelvis_ty	pelvis_tz	hip_flexion_r	hip_adduction_r	hip_rotation_r	knee_angle_r	knee_angle_r_beta	ankle_angle_r	subtalar_angle_r	mtp_angle_r	hip_flexion_l	hip_adduction_l	hip_rotation_l	knee_angle_l	knee_angle_l_beta	ankle_angle_l	subtalar_angle_l	mtp_angle_l	lumbar_extension	lumbar_bending	lumbar_rotation	arm_flex_r	arm_add_r	arm_rot_r	elbow_flex_r	pro_sup_r	wrist_flex_r	wrist_dev_r	arm_flex_l	arm_add_l	arm_rot_l	elbow_flex_l	pro_sup_l	wrist_flex_l	wrist_dev_l
     11.30000000	    -11.20396199	      1.53031108	    179.74244345	      0.29045092	      0.64161640	     -0.93736038	     55.45329281	    -42.92059656	     -1.39413726	     81.47608777	      1.42202599	     11.85767587	      0.00000000	      0.00000000	     52.80610057	    -49.79228227	      3.74452474	     73.34193610	      1.28005826	      8.79720645	      0.00000000	      0.00000000	    -68.24872640	     -0.84909679	     -0.55139829	     46.57178671	      4.14409782	     25.11125294	      2.63365799	     12.22243227	      0.00000000	      0.00000000	     53.35455687	     -8.26189186	     80.85249768	      5.74202031	     81.15341420	      0.00000000	      0.00000000
     11.30500000	    -11.20270542	      1.52045725	    179.74324170	      0.29015950	      0.64140149	     -0.93747506	     55.49583705	    -42.94797892	     -1.35630923	     81.54630313	      1.42325148	     11.89309828	      0.00000000	      0.00000000	     52.74361459	    -49.79201179	      3.74918197	     73.28127581	      1.27899954	      8.81885887	      0.00000000	      0.00000000	    -68.18048184	     -0.85591383	     -0.50934724	     46.50354180	      4.08896570	     25.09635051	      2.64457521	     12.14555943	      0.00000000	      0.00000000	     53.33665176	     -8.25069561	     80.91105417	      5.78446359	     81.28548419	      0.00000000	      0.00000000
     11.31000000	    -11.22008430	      1.50458320	    179.74297579	      0.28990288	      0.64126860	     -0.93762467	     55.51745404	    -42.97196054	     -1.31740447	     81.61069681	      1.42437536	     11.91453427	      0.00000000	      0.00000000	     52.68803479	    -49.79266074	      3.75458578	     73.26314372	      1.27868308	      8.83990549	      0.00000000	      0.00000000	    -68.14382478	     -0.86989950	     -0.50492087	     46.45887280	      4.07999587	     25.08987092	      2.66301819	     12.07662924	      0.00000000	      0.00000000	     53.30404493	     -8.25422805	     80.96773501	      5.80055653	     81.40642344	      0.00000000	      0.00000000
     11.31500000	    -11.24096959	      1.48649705	    179.74299377	      0.28968106	      0.64115804	     -0.93775775	     55.52713211	    -42.98223808	     -1.26415877	     81.66459159	      1.42531601	     11.95869002	      0.00000000	      0.00000000	     52.63476605	    -49.79310005	      3.75731058	     73.25674252	      1.27857136	      8.86276505	      0.00000000	      0.00000000	    -68.11515946	     -0.88496215	     -0.51230403	     46.42711629	      4.08379997	     25.08921921	      2.67472682	     12.01196167	      0.00000000	      0.00000000	     53.27350678	     -8.26274303	     81.01892634	      5.80451739	     81.51671418	      0.00000000	      0.00000000
     11.32000000	    -11.26092569	      1.46809224	    179.74321490	      0.28945562	      0.64108249	     -0.93788055	     55.53158902	    -42.99162289	     -1.21742549	     81.70405509	      1.42600477	     11.98832383	      0.00000000	      0.00000000	     52.58049510	    -49.79355897	      3.75207478	     73.25259265	      1.27849893	      8.88564615	      0.00000000	      0.00000000	    -68.08814528	     -0.89861974	     -0.52170350	     46.40002437	      4.09391105	     25.09356788	      2.67849778	     11.94827267	      0.00000000	      0.00000000	     53.23950167	     -8.27113778	     81.06506503	      5.80517503	     81.62138591	      0.00000000	      0.00000000
     11.32500000	    -11.27128467	      1.44932995	    179.74136318	      0.28929290	      0.64106323	     -0.93801244	     55.53031285	    -42.97075867	     -1.15728242	     81.72745472	      1.42641317	     12.03431850	      0.00000000	      0.00000000	     52.53137516	    -49.79311889	      3.73664213	     73.24528784	      1.27837143	      8.90702254	      0.00000000	      0.00000000	    -68.06516952	     -0.92014995	     -0.53065798	     46.38573490	      4.10395975	     25.10269261	      2.67717484	     11.89286451	      0.00000000	      0.00000000	     53.22273739	     -8.27662820	     81.09915897	      5.80386112	     81.70790835	      0.00000000	      0.00000000
     11.33000000	    -11.28340563	      1.43528087	    179.74120147	      0.28909782	      0.64105335	     -0.93810305	     55.52109723	    -42.95876261	     -1.10976178	     81.74597784	      1.42673646	     12.07385370	      0.00000000	      0.00000000	     52.47963607	    -49.79355875	      3.71851581	     73.23732929	      1.27823253	      8.92802804	      0.00000000	      0.00000000	    -68.04106300	     -0.93243797	     -0.54028215	     46.36691893	      4.11344938	     25.11467239	      2.67092694	     11.83596172	      0.00000000	      0.00000000	     53.19248793	     -8.28276295	     81.13044447	      5.80035893	     81.79341384	      0.00000000	      0.00000000
     11.33500000	    -11.31525274	      1.42230163	    179.74605859	      0.28877721	      0.64106347	     -0.93825147	     55.49468279	    -42.99738117	     -1.10365210	     81.78952061	      1.42749643	     12.09401636	      0.00000000	      0.00000000	     52.40041544	    -49.79572632	      3.70869160	     73.22640490	      1.27804186	      8.94967282	      0.00000000	      0.00000000	    -68.02244022	     -0.93902339	     -0.55978721	     46.32261943	      4.13676131	     25.13072316	      2.66098627	     11.76192562	      0.00000000	      0.00000000	     53.11887493	     -8.30979140	     81.16690156	      5.78794091	     81.90182610	      0.00000000	      0.00000000
     11.34000000	    -11.33883645	      1.40934877	    179.74597776	      0.28856046	      0.64113841	     -0.93837084	     55.46403097	    -43.00202242	     -1.08184956	     81.80780950	      1.42781563	     12.12036153	      0.00000000	      0.00000000	     52.32693502	    -49.79607219	      3.69148139	     73.21222002	      1.27779429	      8.97055984	      0.00000000	      0.00000000	    -68.01571667	     -0.95186222	     -0.58263122	     46.30010230	      4.15988414	     25.15058583	      2.65826290	     11.69546175	      0.00000000	      0.00000000	     53.09175539	     -8.32664865	     81.19316195	      5.77861631	     81.99581224	      0.00000000	      0.00000000
     11.34500000	    -11.36196105	      1.39647646	    179.74625018	      0.28833651	      0.64123821	     -0.93842569	     55.42472578	    -43.01550693	     -1.07086877	     81.81350421	      1.42791502	     12.13713903	      0.00000000	      0.00000000	     52.25074139	    -49.79618000	      3.66141151	     73.19902593	      1.27756401	      8.99203637	      0.00000000	      0.00000000	    -68.00736517	     -0.96466254	     -0.60637470	     46.27176151	      4.16928688	     25.16990358	      2.65553906	     11.62821813	      0.00000000	      0.00000000	     53.06150698	     -8.33715503	     81.21924974	      5.76901965	     82.08805321	      0.00000000	      0.00000000
     11.35000000	    -11.38179780	      1.38726941	    179.74633475	      0.28812318	      0.64144218	     -0.93847622	     55.36606392	    -43.02536842	     -1.08388537	     81.79896750	      1.42766131	     12.15344234	      0.00000000	      0.00000000	     52.16977159	    -49.79636526	      3.61980693	     73.17969710	      1.27722666	      9.01214983	      0.00000000	      0.00000000	    -68.00805010	     -0.95709586	     -0.64160241	     46.25100696	      4.18779125	     25.19191270	      2.66115900	     11.55929524	      0.00000000	      0.00000000	     53.04111028	     -8.35385761	     81.23862558	      5.75906258	     82.18113034	      0.00000000	      0.00000000
     11.35500000	    -11.41061738	      1.38433974	    179.74595461	      0.28793947	      0.64168907	     -0.93853329	     55.28872413	    -43.03121104	     -1.11397868	     81.77618645	      1.42726370	     12.16003015	      0.00000000	      0.00000000	     52.07648009	    -49.79624932	      3.58856979	     73.14314443	      1.27658870	      9.03349572	      0.00000000	      0.00000000	    -68.01697621	     -0.96288295	     -0.66938734	     46.22683976	      4.20101356	     25.21328969	      2.67112186	     11.48694066	      0.00000000	      0.00000000	     53.00352872	     -8.37686447	     81.26298707	      5.74249413	     82.27713321	      0.00000000	      0.00000000
     11.36000000	    -11.66677975	      1.44853824	    179.74706731	      0.28787193	      0.64246080	     -0.93852765	     54.83751459	    -43.02014917	     -1.32511546	     81.68976767	      1.42575541	     12.17092832	      0.00000000	      0.00000000	     51.70867486	    -49.79694491	      3.66483381	     73.05193632	      1.27499681	      9.07565111	      0.00000000	      0.00000000	    -68.28633418	     -0.91325779	     -0.67579289	     46.29772583	      4.25346825	     25.39664513	      2.71013103	     11.00887991	      0.00000000	      0.00000000	     53.05265189	     -8.43374733	     81.33742440	      5.74639445	     82.84095122	      0.00000000	      0.00000000
     11.36500000	    -11.64509367	      1.42353500	    179.74387152	      0.28770234	      0.64265086	     -0.93862825	     54.84367700	    -43.03331906	     -1.32010746	     81.67549602	      1.42550632	     12.17373586	      0.00000000	      0.00000000	     51.65471256	    -49.79595388	      3.57460023	     73.02792970	      1.27457782	      9.09431799	      0.00000000	      0.00000000	    -68.24887508	     -0.93784174	     -0.68983631	     46.26126559	      4.23291799	     25.40807941	      2.70772620	     10.96219785	      0.00000000	      0.00000000	     53.04903778	     -8.43216041	     81.34606563	      5.74186051	     82.88635920	      0.00000000	      0.00000000
